<svg width="13097" height="11003" viewBox="0 0 13097 11003" fill="none" xmlns="http://www.w3.org/2000/svg">
<path opacity="0.1" d="M3762.27 1887.04H2779.74C2723.17 1887.04 2677.21 1935.32 2677.21 1994.89V2156.6C2677.21 2216.17 2723.17 2264.45 2779.74 2264.45H3762.27C3818.83 2264.45 3864.79 2216.17 3864.79 2156.6V1994.89C3864.79 1935.32 3818.83 1887.04 3762.27 1887.04Z" fill="#036F9D"/>
<path opacity="0.1" d="M5005.03 2264.44H4022.65C3965.93 2264.44 3919.97 2312.73 3919.97 2372.3V2534C3919.97 2593.57 3965.93 2641.85 4022.65 2641.85H5005.03C5061.75 2641.85 5107.71 2593.57 5107.71 2534V2372.3C5107.71 2312.73 5061.75 2264.44 5005.03 2264.44Z" fill="#036F9D"/>
<path opacity="0.1" d="M6247.82 2641.87H5265.44C5208.87 2641.87 5162.91 2690.15 5162.91 2749.72V2911.43C5162.91 2971 5208.87 3019.28 5265.44 3019.28H6247.82C6304.54 3019.28 6350.5 2971 6350.5 2911.43V2749.72C6350.5 2690.15 6304.54 2641.87 6247.82 2641.87Z" fill="#036F9D"/>
<path opacity="0.1" d="M3762.27 1320.92H2779.74C2723.17 1320.92 2677.21 1369.21 2677.21 1428.78V1590.48C2677.21 1650.05 2723.17 1698.33 2779.74 1698.33H3762.27C3818.83 1698.33 3864.79 1650.05 3864.79 1590.48V1428.78C3864.79 1369.21 3818.83 1320.92 3762.27 1320.92Z" fill="#036F9D"/>
<path opacity="0.1" d="M5005.03 1698.35H4022.65C3965.93 1698.35 3919.97 1746.63 3919.97 1806.2V1967.91C3919.97 2027.47 3965.93 2075.76 4022.65 2075.76H5005.03C5061.75 2075.76 5107.71 2027.47 5107.71 1967.91V1806.2C5107.71 1746.63 5061.75 1698.35 5005.03 1698.35Z" fill="#036F9D"/>
<path opacity="0.1" d="M6247.82 2075.75H5265.44C5208.87 2075.75 5162.91 2124.03 5162.91 2183.6V2345.31C5162.91 2404.88 5208.87 2453.16 5265.44 2453.16H6247.82C6304.54 2453.16 6350.5 2404.88 6350.5 2345.31V2183.6C6350.5 2124.03 6304.54 2075.75 6247.82 2075.75Z" fill="#036F9D"/>
<path opacity="0.1" d="M7628.77 1887.04H6646.39C6589.82 1887.04 6543.86 1935.32 6543.86 1994.89V2156.6C6543.86 2216.17 6589.82 2264.45 6646.39 2264.45H7628.77C7685.49 2264.45 7731.45 2216.17 7731.45 2156.6V1994.89C7731.45 1935.32 7685.49 1887.04 7628.77 1887.04Z" fill="#036F9D"/>
<path opacity="0.1" d="M8871.69 2264.44H7889.31C7832.59 2264.44 7786.63 2312.73 7786.63 2372.3V2534C7786.63 2593.57 7832.59 2641.85 7889.31 2641.85H8871.69C8928.25 2641.85 8974.21 2593.57 8974.21 2534V2372.3C8974.21 2312.73 8928.25 2264.44 8871.69 2264.44Z" fill="#036F9D"/>
<path opacity="0.1" d="M10114.4 2641.87H9132.06C9075.34 2641.87 9029.54 2690.15 9029.54 2749.72V2911.43C9029.54 2971 9075.34 3019.28 9132.06 3019.28H10114.4C10171.2 3019.28 10217.1 2971 10217.1 2911.43V2749.72C10217.1 2690.15 10171.2 2641.87 10114.4 2641.87Z" fill="#036F9D"/>
<path opacity="0.1" d="M7628.77 1320.92H6646.39C6589.82 1320.92 6543.86 1369.21 6543.86 1428.78V1590.48C6543.86 1650.05 6589.82 1698.33 6646.39 1698.33H7628.77C7685.49 1698.33 7731.45 1650.05 7731.45 1590.48V1428.78C7731.45 1369.21 7685.49 1320.92 7628.77 1320.92Z" fill="#036F9D"/>
<path opacity="0.1" d="M8871.69 1698.35H7889.31C7832.59 1698.35 7786.63 1746.63 7786.63 1806.2V1967.91C7786.63 2027.47 7832.59 2075.76 7889.31 2075.76H8871.69C8928.25 2075.76 8974.21 2027.47 8974.21 1967.91V1806.2C8974.21 1746.63 8928.25 1698.35 8871.69 1698.35Z" fill="#036F9D"/>
<path opacity="0.1" d="M10114.4 2075.75H9132.06C9075.34 2075.75 9029.54 2124.03 9029.54 2183.6V2345.31C9029.54 2404.88 9075.34 2453.16 9132.06 2453.16H10114.4C10171.2 2453.16 10217.1 2404.88 10217.1 2345.31V2183.6C10217.1 2124.03 10171.2 2075.75 10114.4 2075.75Z" fill="#036F9D"/>
<path opacity="0.1" d="M3762.27 566.117H2779.74C2723.17 566.117 2677.21 614.4 2677.21 673.968V835.674C2677.21 895.243 2723.17 943.526 2779.74 943.526H3762.27C3818.83 943.526 3864.79 895.243 3864.79 835.674V673.968C3864.79 614.4 3818.83 566.117 3762.27 566.117Z" fill="#036F9D"/>
<path opacity="0.1" d="M5005.03 943.52H4022.65C3965.93 943.52 3919.97 991.802 3919.97 1051.37V1213.08C3919.97 1272.65 3965.93 1320.93 4022.65 1320.93H5005.03C5061.75 1320.93 5107.71 1272.65 5107.71 1213.08V1051.37C5107.71 991.802 5061.75 943.52 5005.03 943.52Z" fill="#036F9D"/>
<path opacity="0.1" d="M6247.82 1320.92H5265.44C5208.87 1320.92 5162.91 1369.21 5162.91 1428.78V1590.48C5162.91 1650.05 5208.87 1698.33 5265.44 1698.33H6247.82C6304.54 1698.33 6350.5 1650.05 6350.5 1590.48V1428.78C6350.5 1369.21 6304.54 1320.92 6247.82 1320.92Z" fill="#036F9D"/>
<path opacity="0.1" d="M3762.27 0H2779.74C2723.17 0 2677.21 48.2829 2677.21 107.851V269.558C2677.21 329.126 2723.17 377.409 2779.74 377.409H3762.27C3818.83 377.409 3864.79 329.126 3864.79 269.558V107.851C3864.79 48.2829 3818.83 0 3762.27 0Z" fill="#036F9D"/>
<path opacity="0.1" d="M5005.03 377.4H4022.65C3965.93 377.4 3919.97 425.683 3919.97 485.252V646.958C3919.97 706.526 3965.93 754.809 4022.65 754.809H5005.03C5061.75 754.809 5107.71 706.526 5107.71 646.958V485.252C5107.71 425.683 5061.75 377.4 5005.03 377.4Z" fill="#036F9D"/>
<path opacity="0.1" d="M6247.82 754.805H5265.44C5208.87 754.805 5162.91 803.087 5162.91 862.656V1024.36C5162.91 1083.93 5208.87 1132.21 5265.44 1132.21H6247.82C6304.54 1132.21 6350.5 1083.93 6350.5 1024.36V862.656C6350.5 803.087 6304.54 754.805 6247.82 754.805Z" fill="#036F9D"/>
<path opacity="0.1" d="M7628.77 566.117H6646.39C6589.82 566.117 6543.86 614.4 6543.86 673.968V835.674C6543.86 895.243 6589.82 943.526 6646.39 943.526H7628.77C7685.49 943.526 7731.45 895.243 7731.45 835.674V673.968C7731.45 614.4 7685.49 566.117 7628.77 566.117Z" fill="#036F9D"/>
<path opacity="0.1" d="M8871.69 943.52H7889.31C7832.59 943.52 7786.63 991.802 7786.63 1051.37V1213.08C7786.63 1272.65 7832.59 1320.93 7889.31 1320.93H8871.69C8928.25 1320.93 8974.21 1272.65 8974.21 1213.08V1051.37C8974.21 991.802 8928.25 943.52 8871.69 943.52Z" fill="#036F9D"/>
<path opacity="0.1" d="M10114.4 1320.92H9132.06C9075.34 1320.92 9029.54 1369.21 9029.54 1428.78V1590.48C9029.54 1650.05 9075.34 1698.33 9132.06 1698.33H10114.4C10171.2 1698.33 10217.1 1650.05 10217.1 1590.48V1428.78C10217.1 1369.21 10171.2 1320.92 10114.4 1320.92Z" fill="#036F9D"/>
<path opacity="0.1" d="M7628.77 0H6646.39C6589.82 0 6543.86 48.2829 6543.86 107.851V269.558C6543.86 329.126 6589.82 377.409 6646.39 377.409H7628.77C7685.49 377.409 7731.45 329.126 7731.45 269.558V107.851C7731.45 48.2829 7685.49 0 7628.77 0Z" fill="#036F9D"/>
<path opacity="0.1" d="M8871.69 377.4H7889.31C7832.59 377.4 7786.63 425.683 7786.63 485.252V646.958C7786.63 706.526 7832.59 754.809 7889.31 754.809H8871.69C8928.25 754.809 8974.21 706.526 8974.21 646.958V485.252C8974.21 425.683 8928.25 377.4 8871.69 377.4Z" fill="#036F9D"/>
<path opacity="0.1" d="M10114.4 754.805H9132.06C9075.34 754.805 9029.54 803.087 9029.54 862.656V1024.36C9029.54 1083.93 9075.34 1132.21 9132.06 1132.21H10114.4C10171.2 1132.21 10217.1 1083.93 10217.1 1024.36V862.656C10217.1 803.087 10171.2 754.805 10114.4 754.805Z" fill="#036F9D"/>
<path opacity="0.1" d="M3762.27 8607.83H2779.74C2723.17 8607.83 2677.21 8656.13 2677.21 8715.7V8877.39C2677.21 8936.96 2723.17 8985.26 2779.74 8985.26H3762.27C3818.83 8985.26 3864.79 8936.96 3864.79 8877.39V8715.7C3864.79 8656.13 3818.83 8607.83 3762.27 8607.83Z" fill="#036F9D"/>
<path opacity="0.1" d="M5005.03 8985.24H4022.65C3965.93 8985.24 3919.97 9033.52 3919.97 9093.09V9254.8C3919.97 9314.35 3965.93 9362.65 4022.65 9362.65H5005.03C5061.75 9362.65 5107.71 9314.35 5107.71 9254.8V9093.09C5107.71 9033.52 5061.75 8985.24 5005.03 8985.24Z" fill="#036F9D"/>
<path opacity="0.1" d="M6247.82 9362.67H5265.44C5208.87 9362.67 5162.91 9410.95 5162.91 9470.52V9632.22C5162.91 9691.78 5208.87 9740.07 5265.44 9740.07H6247.82C6304.54 9740.07 6350.5 9691.78 6350.5 9632.22V9470.52C6350.5 9410.95 6304.54 9362.67 6247.82 9362.67Z" fill="#036F9D"/>
<path opacity="0.1" d="M3762.27 8041.71H2779.74C2723.17 8041.71 2677.21 8090.01 2677.21 8149.57V8311.27C2677.21 8370.84 2723.17 8419.12 2779.74 8419.12H3762.27C3818.83 8419.12 3864.79 8370.84 3864.79 8311.27V8149.57C3864.79 8090.01 3818.83 8041.71 3762.27 8041.71Z" fill="#036F9D"/>
<path opacity="0.1" d="M5005.03 8419.12H4022.65C3965.93 8419.12 3919.97 8467.41 3919.97 8526.97V8688.67C3919.97 8748.24 3965.93 8796.53 4022.65 8796.53H5005.03C5061.75 8796.53 5107.71 8748.24 5107.71 8688.67V8526.97C5107.71 8467.41 5061.75 8419.12 5005.03 8419.12Z" fill="#036F9D"/>
<path opacity="0.1" d="M6247.82 8796.55H5265.44C5208.87 8796.55 5162.91 8844.83 5162.91 8904.4V9066.09C5162.91 9125.66 5208.87 9173.96 5265.44 9173.96H6247.82C6304.54 9173.96 6350.5 9125.66 6350.5 9066.09V8904.4C6350.5 8844.83 6304.54 8796.55 6247.82 8796.55Z" fill="#036F9D"/>
<path opacity="0.1" d="M7628.77 8607.83H6646.39C6589.82 8607.83 6543.86 8656.13 6543.86 8715.7V8877.39C6543.86 8936.96 6589.82 8985.26 6646.39 8985.26H7628.77C7685.49 8985.26 7731.45 8936.96 7731.45 8877.39V8715.7C7731.45 8656.13 7685.49 8607.83 7628.77 8607.83Z" fill="#036F9D"/>
<path opacity="0.1" d="M8871.69 8985.24H7889.31C7832.59 8985.24 7786.63 9033.52 7786.63 9093.09V9254.8C7786.63 9314.35 7832.59 9362.65 7889.31 9362.65H8871.69C8928.25 9362.65 8974.21 9314.35 8974.21 9254.8V9093.09C8974.21 9033.52 8928.25 8985.24 8871.69 8985.24Z" fill="#036F9D"/>
<path opacity="0.1" d="M10114.4 9362.67H9132.06C9075.34 9362.67 9029.54 9410.95 9029.54 9470.52V9632.22C9029.54 9691.78 9075.34 9740.07 9132.06 9740.07H10114.4C10171.2 9740.07 10217.1 9691.78 10217.1 9632.22V9470.52C10217.1 9410.95 10171.2 9362.67 10114.4 9362.67Z" fill="#036F9D"/>
<path opacity="0.1" d="M7628.77 8041.71H6646.39C6589.82 8041.71 6543.86 8090.01 6543.86 8149.57V8311.27C6543.86 8370.84 6589.82 8419.12 6646.39 8419.12H7628.77C7685.49 8419.12 7731.45 8370.84 7731.45 8311.27V8149.57C7731.45 8090.01 7685.49 8041.71 7628.77 8041.71Z" fill="#036F9D"/>
<path opacity="0.1" d="M8871.69 8419.12H7889.31C7832.59 8419.12 7786.63 8467.41 7786.63 8526.97V8688.67C7786.63 8748.24 7832.59 8796.53 7889.31 8796.53H8871.69C8928.25 8796.53 8974.21 8748.24 8974.21 8688.67V8526.97C8974.21 8467.41 8928.25 8419.12 8871.69 8419.12Z" fill="#036F9D"/>
<path opacity="0.1" d="M10114.4 8796.55H9132.06C9075.34 8796.55 9029.54 8844.83 9029.54 8904.4V9066.09C9029.54 9125.66 9075.34 9173.96 9132.06 9173.96H10114.4C10171.2 9173.96 10217.1 9125.66 10217.1 9066.09V8904.4C10217.1 8844.83 10171.2 8796.55 10114.4 8796.55Z" fill="#036F9D"/>
<path opacity="0.1" d="M3762.27 7286.88H2779.74C2723.17 7286.88 2677.21 7335.18 2677.21 7394.73V7556.44C2677.21 7616.01 2723.17 7664.29 2779.74 7664.29H3762.27C3818.83 7664.29 3864.79 7616.01 3864.79 7556.44V7394.73C3864.79 7335.18 3818.83 7286.88 3762.27 7286.88Z" fill="#036F9D"/>
<path opacity="0.1" d="M5005.03 7664.31H4022.65C3965.93 7664.31 3919.97 7712.61 3919.97 7772.16V7933.87C3919.97 7993.44 3965.93 8041.72 4022.65 8041.72H5005.03C5061.75 8041.72 5107.71 7993.44 5107.71 7933.87V7772.16C5107.71 7712.61 5061.75 7664.31 5005.03 7664.31Z" fill="#036F9D"/>
<path opacity="0.1" d="M6247.82 8041.71H5265.44C5208.87 8041.71 5162.91 8090.01 5162.91 8149.57V8311.27C5162.91 8370.84 5208.87 8419.12 5265.44 8419.12H6247.82C6304.54 8419.12 6350.5 8370.84 6350.5 8311.27V8149.57C6350.5 8090.01 6304.54 8041.71 6247.82 8041.71Z" fill="#036F9D"/>
<path opacity="0.1" d="M3762.27 6720.79H2779.74C2723.17 6720.79 2677.21 6769.09 2677.21 6828.64V6990.35C2677.21 7049.92 2723.17 7098.2 2779.74 7098.2H3762.27C3818.83 7098.2 3864.79 7049.92 3864.79 6990.35V6828.64C3864.79 6769.09 3818.83 6720.79 3762.27 6720.79Z" fill="#036F9D"/>
<path opacity="0.1" d="M5005.03 7098.19H4022.65C3965.93 7098.19 3919.97 7146.49 3919.97 7206.04V7367.75C3919.97 7427.32 3965.93 7475.6 4022.65 7475.6H5005.03C5061.75 7475.6 5107.71 7427.32 5107.71 7367.75V7206.04C5107.71 7146.49 5061.75 7098.19 5005.03 7098.19Z" fill="#036F9D"/>
<path opacity="0.1" d="M6247.82 7475.59H5265.44C5208.87 7475.59 5162.91 7523.89 5162.91 7583.45V7745.15C5162.91 7804.72 5208.87 7853 5265.44 7853H6247.82C6304.54 7853 6350.5 7804.72 6350.5 7745.15V7583.45C6350.5 7523.89 6304.54 7475.59 6247.82 7475.59Z" fill="#036F9D"/>
<path opacity="0.1" d="M7628.77 7286.88H6646.39C6589.82 7286.88 6543.86 7335.18 6543.86 7394.73V7556.44C6543.86 7616.01 6589.82 7664.29 6646.39 7664.29H7628.77C7685.49 7664.29 7731.45 7616.01 7731.45 7556.44V7394.73C7731.45 7335.18 7685.49 7286.88 7628.77 7286.88Z" fill="#036F9D"/>
<path opacity="0.1" d="M8871.69 7664.31H7889.31C7832.59 7664.31 7786.63 7712.61 7786.63 7772.16V7933.87C7786.63 7993.44 7832.59 8041.72 7889.31 8041.72H8871.69C8928.25 8041.72 8974.21 7993.44 8974.21 7933.87V7772.16C8974.21 7712.61 8928.25 7664.31 8871.69 7664.31Z" fill="#036F9D"/>
<path opacity="0.1" d="M10114.4 8041.71H9132.06C9075.34 8041.71 9029.54 8090.01 9029.54 8149.57V8311.27C9029.54 8370.84 9075.34 8419.12 9132.06 8419.12H10114.4C10171.2 8419.12 10217.1 8370.84 10217.1 8311.27V8149.57C10217.1 8090.01 10171.2 8041.71 10114.4 8041.71Z" fill="#036F9D"/>
<path opacity="0.1" d="M7628.77 6720.79H6646.39C6589.82 6720.79 6543.86 6769.09 6543.86 6828.64V6990.35C6543.86 7049.92 6589.82 7098.2 6646.39 7098.2H7628.77C7685.49 7098.2 7731.45 7049.92 7731.45 6990.35V6828.64C7731.45 6769.09 7685.49 6720.79 7628.77 6720.79Z" fill="#036F9D"/>
<path opacity="0.1" d="M8871.69 7098.19H7889.31C7832.59 7098.19 7786.63 7146.49 7786.63 7206.04V7367.75C7786.63 7427.32 7832.59 7475.6 7889.31 7475.6H8871.69C8928.25 7475.6 8974.21 7427.32 8974.21 7367.75V7206.04C8974.21 7146.49 8928.25 7098.19 8871.69 7098.19Z" fill="#036F9D"/>
<path opacity="0.1" d="M10114.4 7475.59H9132.06C9075.34 7475.59 9029.54 7523.89 9029.54 7583.45V7745.15C9029.54 7804.72 9075.34 7853 9132.06 7853H10114.4C10171.2 7853 10217.1 7804.72 10217.1 7745.15V7583.45C10217.1 7523.89 10171.2 7475.59 10114.4 7475.59Z" fill="#036F9D"/>
<path opacity="0.1" d="M6661.14 11002.9C10005.5 11002.9 12716.5 10769 12716.5 10480.4C12716.5 10191.7 10005.5 9957.79 6661.14 9957.79C3316.97 9957.79 605.783 10191.7 605.783 10480.4C605.783 10769 3316.97 11002.9 6661.14 11002.9Z" fill="#036F9D"/>
<path d="M1168.98 2711.53C1740.03 2971.66 2068.05 3509.89 2068.05 3509.89C2068.05 3509.89 1470.26 3626.02 899.065 3366.04C328.022 3106.07 0 2567.67 0 2567.67C0 2567.67 597.789 2451.41 1168.98 2711.53Z" fill="#036F9D"/>
<path d="M2921.3 1712.85C3097.91 1408.02 3398.73 1262.86 3398.73 1262.86C3398.73 1262.86 3412.56 1610.37 3236.41 1914.34C3060.41 2218.29 2758.98 2363.31 2758.98 2363.31C2758.98 2363.31 2744.53 2015.94 2921.3 1712.85Z" fill="#036F9D"/>
<path d="M1623.06 2039.02C1749.41 2513.11 2097.57 2825.19 2097.57 2825.19C2097.57 2825.19 2241.13 2368.38 2114.78 1894.16C1988.43 1419.93 1639.96 1107.98 1639.96 1107.98C1639.96 1107.98 1496.55 1564.79 1623.06 2039.02Z" fill="#46455B"/>
<path d="M11609 2017.69H1741.09C1686.06 2017.69 1641.48 2064.56 1641.48 2122.36V7211.29C1641.48 7269.09 1686.06 7315.94 1741.09 7315.94H11609C11663.9 7315.94 11708.4 7269.09 11708.4 7211.29V2122.36C11708.4 2064.56 11663.9 2017.69 11609 2017.69Z" fill="#3F3D56"/>
<path opacity="0.1" d="M1641.48 6996.6H11708.4V7211.28C11708.4 7239.04 11698 7265.66 11679.4 7285.29C11660.6 7304.92 11635.3 7315.94 11609 7315.94H1741.09C1714.65 7315.94 1689.28 7304.92 1670.68 7285.29C1651.93 7265.66 1641.48 7239.04 1641.48 7211.28V6996.6Z" fill="black"/>
<path d="M3333.1 6604.67H2656.46C2637.4 6604.67 2622.03 6620.92 2622.03 6640.96V6960.31C2622.03 6980.35 2637.4 6996.6 2656.46 6996.6H3333.1C3352.16 6996.6 3367.69 6980.35 3367.69 6960.31V6640.96C3367.69 6620.92 3352.16 6604.67 3333.1 6604.67Z" fill="#036F9D"/>
<path d="M4058.18 6938.51H3602.42C3587.2 6938.51 3574.75 6951.51 3574.75 6967.55C3574.75 6983.59 3587.2 6996.58 3602.42 6996.58H4058.18C4073.39 6996.58 4085.69 6983.59 4085.69 6967.55C4085.69 6951.51 4073.39 6938.51 4058.18 6938.51Z" fill="#036F9D"/>
<path d="M3121.13 3053.83C3485.59 3124.52 3857.42 3053.83 4220.18 3005.92L5323.22 2860.77C5367.8 2854.81 5432.67 2826.79 5458.95 2884.14C5473.71 2916.22 5463.72 2985.74 5464.94 3022.61C5467.71 3124.23 5467.56 3225.84 5464.94 3327.44C5459.87 3521.66 5446.34 3715.46 5429.13 3908.8C5395.62 4287.23 5348.12 4663.62 5324.3 5043.5C5312.15 5236.85 5306.01 5430.78 5311.54 5624.13C5312.77 5670.29 5314.46 5716.45 5317.07 5762.45C5319.99 5813.99 5341.98 5890.49 5288.48 5924.9C5258.05 5944.64 5197.95 5943.62 5163.05 5949.42C5107.72 5958.57 5052.53 5965.83 4996.28 5971.78C4624.91 6010.83 4248.77 5994.56 3876.02 5992.24L2750.53 5986.15L2476 5984.55C2451.1 5984.55 2361.49 6000.23 2346.27 5969.16C2339.66 5955.95 2357.03 5894.12 2359.95 5877.58C2364.25 5850.28 2368.87 5823.04 2373.78 5795.85C2405.91 5604.96 2443.72 5415.24 2481.84 5225.67C2563.62 4819.23 2647.55 4410.76 2681.21 3995.61C2697.96 3787.3 2686.9 3577.12 2707.34 3369.25C2716.87 3272.72 2728.09 3057.3 2850.45 3048.75C2953.89 3041.49 3060.57 3048.75 3164.33 3048.75C3169.86 3048.75 3175.09 3046.46 3179.08 3042.37C3182.93 3038.28 3185.08 3032.75 3185.08 3026.97C3185.08 3021.2 3182.93 3015.65 3179.08 3011.58C3175.09 3007.49 3169.86 3005.2 3164.33 3005.2C3066.41 3005.2 2968.19 3002.45 2870.12 3004.47C2804.95 3005.78 2759.6 3022.03 2728.55 3085.04C2649.24 3246.74 2657.38 3462.45 2654.77 3638.96C2648.93 4061.51 2587.14 4475.06 2506.74 4888.33C2466.32 5096.34 2422.66 5303.61 2382.54 5511.78C2363.64 5611.21 2345.5 5710.93 2328.9 5810.95C2321.21 5858.55 2282.17 5963.51 2316.45 6007.19C2350.88 6050.89 2456.63 6027.37 2503.98 6027.67L2833.54 6029.69L3464.84 6033.47C3872.79 6035.94 4282.13 6047.98 4689.93 6035.36C4884.68 6029.25 5090.35 6020.84 5280.03 5971.92C5336.44 5957.41 5363.65 5930.12 5365.8 5866.83C5369.18 5768.71 5353.96 5667.53 5352.12 5568.97C5338.28 4725.61 5526.74 3893.99 5507.37 3050.35C5506.14 2993 5526.74 2848.43 5467.1 2813.74C5440.35 2798.06 5405.46 2806.63 5377.33 2810.11C5323.53 2816.64 5269.73 2824.62 5215.93 2831.31L4516.54 2923.04C4292.88 2952.07 4069.39 2983.42 3845.43 3010.14C3608.4 3039.16 3368.92 3056.44 3132.66 3010.14C3106.53 3005.05 3095.31 3047.01 3121.59 3052.09L3121.13 3053.83Z" fill="#036F9D"/>
<path d="M2681.52 3566.97L5440.82 3424.71C5467.56 3423.26 5467.72 3379.7 5440.82 3381.16L2681.52 3523.42C2654.92 3524.72 2654.77 3568.27 2681.52 3566.97Z" fill="#036F9D"/>
<path d="M3531.56 3207.96C3523.87 3216.56 3518.34 3227.01 3515.26 3238.4C3512.34 3249.8 3512.04 3261.77 3514.34 3273.33C3516.8 3284.87 3521.87 3295.62 3529.1 3304.64C3536.32 3313.68 3545.55 3320.69 3556 3325.1C3593.2 3342.97 3636.85 3328 3673.74 3318.29C3728.93 3303.76 3784.11 3290.85 3840.98 3280.26C3964.41 3257.26 4089.53 3245.03 4214.96 3243.67C4272.14 3242.95 4329.02 3245.71 4386.05 3248.32C4427.55 3250.06 4472.12 3253.54 4507.17 3226.54C4547.29 3195.77 4560.2 3135.68 4521.01 3098.23C4465.82 3045.24 4346.7 3076.01 4282.9 3081.53C4051.41 3101.75 3821.46 3137.83 3594.43 3189.53C3568.45 3195.33 3579.36 3237.43 3605.49 3231.48C3755.21 3197.51 3906.16 3170.23 4058.33 3149.61C4133.04 3139.94 4207.89 3131.76 4282.9 3125.09C4318.26 3122.03 4353.61 3119.27 4388.97 3117.1C4402.8 3116.22 4417.4 3114.63 4431.55 3115.06C4475.35 3116.08 4480.43 3107.8 4454.14 3163.4C4430.93 3212.61 4438.31 3206.94 4397.88 3205.35C4380.67 3205.35 4363.6 3203.32 4346.54 3202.45C4311.34 3200.9 4276.3 3200.08 4241.25 3199.99C4166.55 3199.99 4092.15 3203.76 4017.75 3211.3C3954.88 3217.69 3892.01 3226.69 3829.76 3238.3C3790.87 3245.57 3752.14 3253.98 3713.55 3263.27C3696.64 3267.47 3679.43 3271.83 3662.52 3276.33C3654.37 3278.66 3646.07 3280.68 3637.93 3282.86C3607.8 3293.89 3581.98 3279.38 3560.76 3239.32C3579.21 3219.15 3550.16 3188.22 3531.4 3208.54L3531.56 3207.96Z" fill="#036F9D"/>
<path d="M4031.72 3827.5C3831.9 3819.38 3616.08 3876.14 3484.51 4045.24C3381.52 4177.47 3322.8 4404.36 3431.94 4553.3C3549.07 4712.97 3806.23 4684.81 3961.32 4616.73C4125.33 4544.15 4304.87 4394.49 4354.21 4207.24C4415.7 3973.38 4216.18 3796.58 4008.21 3793.97C3981.61 3793.97 3981.61 3837.53 4008.21 3837.53C4126.72 3838.97 4243.08 3892.39 4298.26 4008.37C4356.21 4130.59 4306.25 4258.9 4229.24 4356.74C4105.81 4512.5 3912.75 4629.94 3716.15 4626.6C3597.95 4624.7 3467.44 4582.18 3430.86 4451.24C3400.73 4345.13 3423.79 4229.15 3476.21 4135.09C3589.65 3931.87 3820.68 3863.07 4032.65 3871.78C4059.24 3872.8 4059.24 3829.24 4032.65 3828.23L4031.72 3827.5Z" fill="#036F9D"/>
<path d="M3833.3 4150.05C3824.85 4146.72 3815.62 4145.72 3806.71 4147.13C3797.64 4148.55 3789.18 4152.34 3781.96 4158.12C3774.73 4163.92 3769.05 4171.54 3765.36 4180.28C3761.67 4189.02 3760.13 4198.59 3760.9 4208.1C3765.05 4264.72 3824.54 4280.68 3869.11 4277.35C3907.7 4273.87 3952.58 4258.9 3939.06 4208.24C3936.6 4199.28 3932.29 4190.99 3926.45 4183.92C3920.76 4176.86 3913.54 4171.19 3905.39 4167.32C3893.09 4162.17 3879.72 4160.41 3866.5 4162.24C3861.43 4162.24 3814.55 4180.23 3834.37 4158.6L3801.79 4154.11C3805.48 4157.85 3808.24 4162.41 3809.93 4167.43C3811.63 4172.46 3812.24 4177.82 3811.78 4183.14C3811.78 4186.93 3812.86 4190.64 3814.7 4193.9C3816.55 4197.17 3819.16 4199.89 3822.23 4201.77C3825.46 4203.66 3828.99 4204.67 3832.53 4204.68C3836.22 4204.7 3839.76 4203.72 3842.83 4201.87C3847.59 4199.77 3852.82 4199.12 3857.89 4199.97C3862.97 4200.82 3867.73 4203.14 3871.57 4206.67C3875.42 4210.2 3878.34 4214.79 3879.88 4219.94C3881.41 4225.1 3881.57 4230.6 3880.34 4235.82C3879.11 4240.86 3879.72 4246.13 3882.03 4250.74C3884.18 4255.34 3888.02 4258.96 3892.48 4260.98C3896.94 4262.99 3902.01 4263.26 3906.78 4261.75C3911.39 4260.22 3915.54 4257.01 3918.15 4252.67C3931.99 4226.55 3948.59 4174.57 3927.99 4147.29C3914.15 4128.85 3887.41 4134.36 3870.96 4145.11C3860.66 4152.72 3851.13 4161.32 3842.52 4170.8C3825.77 4186.34 3814.85 4193.59 3821 4163.84C3831.45 4109.68 3880.49 4066.58 3925.37 4044.95L3895.09 4020.42C3879.11 4083.34 3850.67 4141.97 3811.47 4192.43L3846.83 4207.82C3845.9 4187.88 3850.67 4168.11 3860.82 4151.19C3870.96 4134.29 3885.72 4121.06 3903.24 4113.32H3882.95L3893.71 4131.9C3889.71 4159.33 3929.53 4171.09 3933.52 4143.36C3938.9 4107.51 3917.23 4060.92 3877.42 4078.47C3829.76 4099.37 3805.02 4156.72 3805.94 4207.82C3805.94 4225.23 3829.46 4238.74 3841.45 4223.35C3885.41 4167.26 3917.38 4101.99 3935.52 4031.89C3936.44 4027.73 3936.29 4023.36 3934.91 4019.33C3933.52 4015.28 3931.06 4011.76 3927.83 4009.16C3924.61 4006.56 3920.76 4005 3916.77 4004.68C3912.62 4004.36 3908.62 4005.28 3904.93 4007.35C3863.58 4027.01 3828.69 4059.01 3804.4 4099.37C3787.65 4128.41 3766.43 4173.71 3783.65 4207.08C3786.42 4212.43 3790.26 4217.14 3794.72 4220.93C3799.33 4224.72 3804.55 4227.54 3810.09 4229.19C3815.62 4230.84 3821.62 4231.33 3827.3 4230.6C3833.15 4229.87 3838.68 4227.95 3843.75 4224.95C3856.51 4216.98 3868.19 4207.21 3878.34 4195.91C3883.41 4191.12 3889.1 4182.84 3895.86 4181.4C3902.01 4177.05 3901.7 4179.51 3894.94 4189.1C3894.79 4204.13 3890.64 4218.84 3882.95 4231.48L3920.76 4248.17C3924.14 4234.62 3923.68 4220.31 3919.53 4206.99C3915.38 4193.68 3907.7 4181.9 3897.4 4173.1C3886.95 4164.3 3874.34 4158.86 3861.12 4157.42C3847.75 4155.99 3834.38 4158.6 3822.54 4165L3853.74 4183.86C3854.36 4165.39 3848.98 4147.26 3838.22 4132.62C3836.53 4129.8 3834.38 4127.39 3831.76 4125.59C3829 4123.78 3826.07 4122.63 3823 4122.2C3819.93 4121.76 3816.7 4122.07 3813.62 4123.09C3810.7 4124.12 3807.94 4125.84 3805.78 4128.13C3784.72 4151.21 3780.73 4191.12 3807.17 4212.46C3826.84 4228.28 3836.53 4212.46 3858.2 4208.82C3931.83 4198.81 3888.79 4233.66 3862.81 4234.82C3851.28 4236.12 3839.6 4235.24 3828.23 4232.2C3799.48 4221.95 3797.64 4208.74 3822.85 4192.57C3847.59 4203.17 3858.2 4161.08 3833.91 4150.63L3833.3 4150.05Z" fill="#036F9D"/>
<path d="M3800.1 4229.6C3817.01 4287.67 3746.91 4306.83 3713.56 4326.86C3690.19 4340.62 3669.9 4359.36 3653.76 4381.87C3619.02 4430.93 3605.96 4493.36 3594.58 4552.13C3589.36 4579.57 3629.17 4591.18 3634.55 4563.76C3641.01 4520.55 3652.69 4478.42 3669.6 4438.48C3694.34 4386.51 3730.01 4369.1 3776.43 4342.38C3822.85 4315.68 3856.36 4274.3 3839.91 4217.99C3832.22 4191.29 3792.26 4202.74 3800.1 4229.6Z" fill="#036F9D"/>
<path d="M3869.11 4200.43C3859.27 4201.87 3850.21 4207.13 3843.75 4215.18C3837.45 4223.24 3834.06 4233.51 3834.53 4243.97C3834.53 4261.25 3845.44 4272.28 3852.97 4286.07C3870.65 4314.29 3884.18 4345.17 3892.94 4377.66C3899.55 4408.87 3906.16 4464.76 3890.63 4493.79C3862.04 4547.64 3810.39 4537.34 3766.43 4537.34C3724.93 4537.34 3692.96 4551.86 3694.34 4491.18C3695.11 4457.07 3717.71 4422.52 3735.69 4395.66L3697.88 4390.43C3705.87 4434.77 3710.02 4479.74 3710.48 4524.86C3710.48 4545.04 3739.84 4556.21 3748.91 4535.75C3771.2 4486.64 3788.72 4435.4 3801.63 4382.75L3760.9 4376.94L3767.97 4487.25C3768.12 4491.96 3769.66 4496.52 3772.43 4500.21C3775.19 4503.91 3779.04 4506.58 3783.34 4507.83C3787.64 4509.06 3792.26 4508.8 3796.41 4507.08C3800.56 4505.37 3804.09 4502.29 3806.55 4498.3C3811.32 4492.68 3814.85 4485.98 3816.85 4478.7C3818.23 4471.88 3805.63 4425.86 3800.4 4442.26L3841.14 4448.06L3843.9 4343.27L3802.55 4349.06C3811.32 4378.62 3813.93 4409.81 3810.24 4440.52C3807.63 4464.76 3846.52 4470.28 3851.74 4446.32L3877.72 4305.52L3839.75 4310.6C3848.82 4330.07 3851.28 4352.18 3846.82 4373.3C3843.9 4401.18 3885.25 4400.9 3888.32 4373.3C3891.86 4344.41 3887.4 4315.05 3875.57 4288.69C3873.42 4285.05 3870.5 4282.14 3866.81 4280.3C3863.12 4278.46 3859.12 4277.77 3855.12 4278.32C3850.97 4278.87 3847.28 4280.64 3844.21 4283.41C3841.14 4286.19 3838.83 4289.84 3837.75 4293.91L3811.62 4434.71L3852.36 4440.52C3856.51 4405.92 3853.43 4370.77 3843.13 4337.59C3841.75 4332.6 3838.68 4328.29 3834.53 4325.45C3830.38 4322.6 3825.46 4321.42 3820.54 4322.09C3815.62 4322.79 3811.16 4325.29 3807.78 4329.18C3804.55 4333.06 3802.71 4338.06 3802.55 4343.27L3799.63 4448.06C3799.63 4473.46 3833.14 4477.1 3840.37 4453.88L3842.52 4446.76C3843.59 4443.06 3843.6 4439.15 3842.67 4435.43C3841.75 4431.71 3839.91 4428.32 3837.29 4425.56C3794.41 4376.5 3785.65 4454.6 3770.74 4476.22L3809.47 4487.25L3802.25 4376.94C3800.71 4353.42 3767.66 4346.17 3761.51 4371.13C3749.83 4420.23 3733.69 4468.02 3713.25 4513.83L3751.83 4524.86C3751.37 4475.84 3746.76 4426.98 3738 4378.82C3734.46 4358.79 3709.4 4359.67 3700.18 4373.6C3672.67 4415.41 3624.86 4506.71 3661.75 4556.79C3693.88 4600.34 3795.02 4583.49 3838.37 4580.73C3906.46 4576.68 3931.21 4531.23 3938.74 4463.59C3942.28 4431.2 3940.59 4398.41 3933.52 4366.63C3929.83 4349.5 3892.17 4240.93 3880.79 4243.11C3907.08 4238.02 3895.86 4195.93 3869.73 4201.01L3869.11 4200.43Z" fill="#036F9D"/>
<path d="M3788.87 4298.25L3675.73 4455.16L3711.55 4477.08L3794.4 4351.09L3756.59 4334.25L3715.24 4499.88C3714.16 4504.9 3714.78 4510.18 3716.93 4514.79C3719.23 4519.39 3722.92 4523.01 3727.38 4525.03C3731.99 4527.04 3737.06 4527.31 3741.68 4525.79C3746.44 4524.26 3750.44 4521.05 3753.05 4516.71C3771.96 4483.99 3793.02 4452.79 3816.23 4423.37L3781.64 4402.19C3772.42 4439.68 3754.59 4474.23 3729.69 4502.78L3764.27 4523.97C3766.42 4503.91 3771.5 4484.33 3779.34 4465.91C3789.94 4440.8 3756.28 4418.59 3743.52 4443.85C3731.84 4466.85 3718.46 4488.88 3703.71 4509.74L3741.52 4514.97L3749.98 4473.61L3712.01 4468.37L3718.16 4504.66C3719.08 4508.31 3721.08 4511.63 3723.69 4514.29C3726.15 4516.94 3729.38 4518.85 3732.91 4519.81C3736.45 4520.79 3740.14 4520.77 3743.52 4519.8C3747.06 4518.82 3750.28 4516.91 3752.74 4514.25C3787.79 4476.15 3815.92 4431.62 3835.59 4382.88H3800.09C3809.46 4401.03 3815.92 4420.63 3819.45 4440.94C3824.53 4467.07 3857.42 4457.34 3860.19 4435.14C3866.03 4386.52 3869.1 4337.55 3869.26 4288.52H3827.76V4379.83C3827.76 4403.49 3864.65 4410.46 3868.49 4385.64C3871.26 4363.62 3878.17 4342.39 3888.78 4323.21H3852.5C3861.26 4338.06 3866.03 4355.12 3866.34 4372.57C3866.34 4378.34 3868.49 4383.89 3872.33 4387.97C3876.33 4392.05 3881.55 4394.35 3887.09 4394.35C3892.47 4394.35 3897.85 4392.05 3901.69 4387.97C3905.53 4383.89 3907.69 4378.34 3907.69 4372.57L3913.06 4343.54H3873.1C3877.1 4369.23 3892.31 4513.95 3838.36 4496.97C3829.14 4494.65 3826.52 4495.23 3830.37 4498.57L3842.66 4470.99L3871.56 4406.68L3832.98 4395.65C3835.44 4425.55 3838.05 4468.23 3820.84 4493.77C3807.16 4514.53 3764.58 4522.81 3742.91 4510.62C3728.61 4499.9 3716.31 4486.39 3706.78 4470.85L3678.5 4499.88C3701.4 4517.43 3738.6 4560.55 3768.11 4563.01C3790.71 4564.91 3809.62 4545.31 3824.37 4529.64C3846.97 4505.02 3864.65 4475.81 3876.33 4443.79C3887.86 4411.79 3893.24 4377.63 3891.85 4343.4C3891.85 4337.63 3889.7 4332.08 3885.86 4327.99C3881.86 4323.92 3876.64 4321.63 3871.1 4321.63C3865.72 4321.63 3860.34 4323.92 3856.5 4327.99C3852.66 4332.08 3850.5 4337.63 3850.5 4343.4V4393.04C3850.5 4398.82 3852.66 4404.35 3856.5 4408.44C3860.34 4412.52 3865.72 4414.82 3871.1 4414.82C3876.64 4414.82 3881.86 4412.52 3885.86 4408.44C3889.7 4404.35 3891.85 4398.82 3891.85 4393.04V4271.25C3891.85 4265.48 3889.7 4259.94 3885.86 4255.85C3881.86 4251.78 3876.64 4249.48 3871.1 4249.48C3865.72 4249.48 3860.34 4251.78 3856.5 4255.85C3852.66 4259.94 3850.5 4265.48 3850.5 4271.25C3850.35 4300.44 3848.05 4329.58 3843.28 4358.34L3884.01 4364.16C3880.79 4329.47 3879.25 4294.63 3879.4 4259.79C3879.4 4254.57 3877.56 4249.55 3874.18 4245.64C3870.95 4241.74 3866.49 4239.19 3861.57 4238.5C3856.65 4237.79 3851.58 4238.97 3847.43 4241.81C3843.28 4244.65 3840.21 4248.97 3838.82 4253.99C3832.67 4281.71 3824.99 4309 3817.76 4336.14L3855.58 4330.91L3852.66 4319.3C3850.66 4291.58 3809.31 4291.44 3811.15 4319.3C3811.61 4331.05 3814.54 4342.55 3819.76 4352.97C3827.75 4370.69 3852.81 4364.44 3857.57 4347.75C3865.57 4320.46 3872.48 4293.18 3878.79 4265.6L3838.05 4259.79C3837.75 4294.63 3839.28 4329.47 3842.51 4364.16C3844.66 4386.5 3878.94 4396.09 3883.25 4369.96C3888.63 4337.17 3891.55 4303.97 3891.85 4270.67H3850.5V4392.46H3891.85V4342.82H3850.5C3852.81 4397.58 3834.83 4451.15 3800.09 4492.03C3794.71 4498.47 3788.87 4504.48 3782.72 4510.04C3772.88 4519.91 3763.81 4518.45 3755.97 4505.54C3736.45 4496.97 3716.01 4474.91 3698.94 4461.99C3681.88 4449.07 3658.36 4474.62 3670.51 4491.75C3702.33 4536.16 3749.67 4585.66 3808.54 4564.33C3870.64 4541.25 3879.1 4452.99 3874.33 4394.93C3872.79 4375.63 3845.28 4362.56 3835.75 4384.04C3822.07 4414.67 3808.23 4445.15 3794.4 4475.93C3789.48 4486.67 3780.57 4501.47 3781.95 4514.25C3786.56 4546.91 3824.22 4541.53 3847.43 4539.65C3937.35 4532.54 3923.06 4398.55 3912.76 4331.2C3909.22 4308.85 3878.33 4312.34 3872.79 4331.2C3868.49 4344.46 3866.18 4358.39 3866.03 4372.43H3907.53C3905.99 4347.47 3899.38 4323.14 3888.01 4301.15C3886.17 4297.91 3883.55 4295.23 3880.32 4293.36C3877.25 4291.49 3873.72 4290.52 3870.18 4290.52C3866.49 4290.52 3862.96 4291.49 3859.88 4293.36C3856.65 4295.23 3854.04 4297.91 3852.2 4301.15C3839.9 4323.57 3831.6 4348.16 3827.6 4373.73L3869.1 4379.54V4288.24C3869.1 4282.47 3866.95 4276.93 3862.96 4272.84C3859.11 4268.75 3853.89 4266.46 3848.35 4266.46C3842.82 4266.46 3837.59 4268.75 3833.75 4272.84C3829.91 4276.93 3827.6 4282.47 3827.6 4288.24C3827.45 4337.26 3824.53 4386.22 3818.53 4434.84L3859.27 4429.04C3854.65 4405.31 3846.66 4382.43 3835.59 4361.1C3833.75 4357.86 3831.14 4355.18 3828.06 4353.31C3824.99 4351.44 3821.45 4350.45 3817.76 4350.45C3814.23 4350.45 3810.69 4351.44 3807.46 4353.31C3804.39 4355.18 3801.78 4357.86 3799.93 4361.1C3781.95 4406.57 3755.97 4448.11 3723.54 4483.62L3758.28 4493.19L3752.13 4456.9C3748.9 4437.6 3722.92 4437.02 3714.31 4451.68C3707.4 4462.6 3702.79 4474.88 3700.63 4487.76C3698.48 4500.65 3698.79 4513.86 3701.71 4526.58C3705.24 4547.2 3729.99 4545.03 3739.52 4531.82C3754.43 4511 3767.81 4489.01 3779.49 4466.05L3743.67 4443.99C3734.14 4465.69 3727.69 4488.71 3724.31 4512.36C3721.85 4531.52 3743.52 4551.54 3759.05 4533.56C3788.71 4499.4 3810.23 4458.3 3821.76 4413.66C3826.83 4393.91 3800.86 4375.19 3787.02 4392.46C3761.66 4424.46 3738.6 4458.43 3718 4494.07L3755.82 4510.91L3797.93 4345.87C3799.01 4340.84 3798.4 4335.56 3796.24 4330.95C3794.09 4326.35 3790.25 4322.73 3785.79 4320.71C3781.33 4318.7 3776.26 4318.43 3771.5 4319.95C3766.88 4321.47 3762.73 4324.69 3760.12 4329.03L3677.27 4455.16C3661.74 4478.54 3697.25 4498.71 3713.09 4477.08L3825.76 4320.32C3841.74 4297.96 3805.77 4276.77 3789.94 4298.25H3788.87Z" fill="#036F9D"/>
<path d="M5550.7 4822.12C5716.4 4715.57 5848.14 4556.64 5994.47 4423.67C6153.26 4279.53 6319.88 4145.26 6491.58 4018.1C6824.98 3771.33 7174.99 3550.55 7524.84 3330.34C7529.29 3327.32 7532.52 3322.59 7533.9 3317.11C7535.13 3311.63 7534.37 3305.84 7531.6 3300.98C7528.99 3296.11 7524.53 3292.52 7519.3 3290.99C7514.23 3289.45 7508.7 3290.09 7503.93 3292.75C7154.23 3512.95 6803.92 3733.3 6470.67 3980.5C6313.27 4096.62 6159.71 4219.72 6012.61 4350.37C5852.29 4492.62 5709.64 4669.71 5529.18 4784.53C5506.43 4799.04 5527.34 4836.79 5550.09 4822.12H5550.7Z" fill="#036F9D"/>
<path d="M8059.6 2654.21C7880.06 2673.36 7686.85 2721.41 7576.33 2886.46C7480.87 3028.42 7483.03 3276.06 7572.64 3421.8C7674.4 3587.42 7882.37 3593.37 8043.92 3539.8C8205.48 3486.24 8372.71 3392.32 8371.18 3189.39C8370.41 3080.54 8332.9 2967.15 8291.71 2868.45C8256.05 2783.24 8192.87 2708.78 8097.42 2718.22C8070.98 2720.83 8070.67 2764.38 8097.42 2761.76C8225.31 2749.27 8266.5 2909.1 8296.93 3009.98C8324.45 3104.2 8350.12 3215.67 8306.62 3309.29C8263.27 3402.93 8158.75 3450.68 8069.44 3484.94C7972.75 3521.81 7866.54 3544.31 7765.7 3513.96C7565.72 3455.19 7510.39 3188.81 7568.03 2999.82C7634.28 2782.09 7869 2718.08 8060.37 2697.75C8086.5 2694.99 8086.81 2651.45 8060.37 2654.21H8059.6Z" fill="#036F9D"/>
<path d="M8335.85 4338.03C8156.31 4357.19 7962.94 4405.24 7852.58 4570.28C7757.12 4712.24 7759.12 4959.89 7848.73 5105.62C7950.64 5271.26 8158.62 5277.2 8320.17 5223.64C8481.72 5170.08 8648.96 5076.16 8647.42 4873.23C8646.5 4764.36 8609.15 4650.99 8567.8 4552.29C8532.29 4467.08 8469.12 4392.61 8373.51 4402.05C8347.22 4404.66 8346.92 4448.2 8373.51 4445.6C8501.55 4433.11 8542.74 4592.94 8573.03 4693.82C8600.69 4788.02 8626.21 4899.5 8582.86 4993.13C8539.52 5086.75 8434.99 5134.51 8345.68 5168.76C8249 5205.63 8142.79 5228.14 8041.8 5197.8C7841.97 5139.01 7786.63 4872.65 7844.28 4683.65C7910.53 4465.92 8145.24 4401.9 8336.62 4381.58C8362.75 4378.82 8363.05 4335.27 8336.62 4338.03H8335.85Z" fill="#036F9D"/>
<path d="M7788.93 3078.19L7919.58 3234.96C7922.2 3237.59 7925.42 3239.47 7928.96 3240.42C7932.34 3241.36 7936.03 3241.34 7939.57 3240.37C7942.95 3239.39 7946.18 3237.48 7948.79 3234.84C7951.25 3232.18 7953.09 3228.88 7954.17 3225.25C7981.84 3148.89 7976.46 3069.78 7983.07 2989.5C7990.14 2906.54 8009.97 2825.32 8041.63 2748.98C8105.42 2594.13 8213.48 2463.99 8350.75 2376.65C8373.5 2362.14 8352.75 2324.39 8329.84 2339.06C8194.58 2424.76 8085.9 2550.18 8017.34 2699.92C7983.84 2772.78 7960.63 2850.38 7948.33 2930.27C7934.49 3024.49 7947.1 3123.19 7913.9 3213.62L7948.64 3203.91L7818.6 3047.42C7800.92 3026.37 7771.71 3057.29 7789.24 3078.19H7788.93Z" fill="#036F9D"/>
<path d="M5617.27 4991.82C6329.57 4968.98 7042.03 4964.14 7754.8 4977.29C7781.39 4977.29 7781.39 4933.75 7754.8 4933.75C7042.34 4920.4 6329.88 4925.23 5617.27 4948.26C5590.68 4949.13 5590.52 4992.68 5617.27 4991.82Z" fill="#036F9D"/>
<path d="M7903.59 4562.44C8147.07 4662.9 8381.33 4786.6 8603.29 4932.02C8626.04 4946.53 8646.79 4909.22 8624.19 4894.43C8399.31 4747.22 8161.98 4622.05 7915.27 4520.5C7890.52 4510.19 7879.76 4552.29 7904.36 4562.44H7903.59Z" fill="#036F9D"/>
<path d="M8345.82 4365.17C8098.8 4667.75 7955.85 5048.75 7939.71 5447.04C7938.48 5475.05 7979.98 5475.05 7981.06 5447.04C7996.74 5060.2 8135.54 4690.07 8375.03 4395.95C8392.24 4374.76 8363.19 4343.84 8345.82 4365.17Z" fill="#036F9D"/>
<path d="M2822.79 4833.75L4366.22 4812.56L4543.75 4810.09C4575.57 4810.09 4607.54 4808.93 4639.36 4808.79C4684.25 4808.79 4714.53 4847.98 4713.61 4895.88C4711.61 4997.49 4650.89 4993.86 4571.27 4997.49L4379.44 5006.63L3598.42 5042.77C3458.54 5049.31 3318.51 5057.3 3178.63 5062.38C3052.43 5066.44 2812.33 5023.19 2868.44 4830.13C2876.28 4803.27 2836.31 4791.8 2828.47 4818.52C2800.81 4913.44 2849.69 5009.82 2928.39 5059.62C3040.14 5130.16 3187.39 5106.2 3310.67 5100.41L4269.53 5054.68L4502.41 5043.79C4562.05 5040.89 4645.05 5053.66 4699.93 5024.49C4764.18 4990.38 4775.55 4854.95 4734.97 4797.9C4714.07 4768.86 4684.86 4766.26 4652.12 4764.94C4566.2 4761.47 4478.73 4767.42 4392.81 4768.58L3914.61 4775.25L2822.17 4789.76C2795.58 4789.76 2795.58 4833.31 2822.17 4833.31L2822.79 4833.75Z" fill="#036F9D"/>
<path d="M9058.76 10168.3C9024.02 10191.2 8984.21 10204.1 8948.24 10224.3C8912.42 10244.5 8877.38 10274.8 8867.23 10316.6C8863.39 10329.6 8864 10343.6 8869.08 10356.1C8877.99 10371.3 8891.67 10382.6 8907.66 10388.3C8980.67 10422.4 9059.37 10440.4 9139.15 10441.4C9219.08 10442.3 9298.24 10426.2 9371.87 10393.9C9397.69 10380.8 9424.44 10369.6 9451.96 10360.5C9485.62 10353.2 9520.05 10349.5 9554.48 10349.4C9590.76 10347.2 9626.73 10342.4 9662.39 10334.9C9680.22 10332.8 9697.28 10325.4 9711.27 10313.6C9724.03 10298.1 9731.71 10278.6 9733.25 10258.1C9749.54 10145.1 9724.95 10029.6 9664.23 9934.73C9656.55 9921.43 9646.25 9910 9634.1 9901.19C9619.19 9893.12 9602.9 9888.52 9586.15 9887.7C9517.13 9878.85 9444.73 9862.58 9374.94 9860.84C9324.99 9859.68 9299.93 9884.65 9264.58 9920.79C9191.41 9997.57 9148.83 10109.2 9058.76 10168.3Z" fill="#323444"/>
<path d="M10076.3 10157.5C10076.3 10228.6 10084.5 10304 10125.5 10360.7C10144.3 10385.3 10167 10406.2 10192.7 10422.4C10279.4 10480.5 10394.2 10501.8 10485.7 10452.6C10500.4 10445.7 10513 10434.5 10522.1 10420.4C10535.9 10395.1 10528.6 10363.6 10520.9 10335.8L10388.5 9853.85C10303.1 9867.64 10177.5 9877.37 10101.5 9922.95C10046.4 9955.9 10076.3 10093.9 10076.3 10157.5Z" fill="#323444"/>
<path d="M8981.12 7190.07C8973.12 7216.64 8944.07 7228.97 8928.24 7251.33C8909.64 7277.59 8911.48 7314.04 8918.25 7345.97C8926.7 7393.05 8947.76 7436.64 8978.96 7471.53C8994.8 7488.81 9014.32 7501.87 9035.99 7509.59C9057.51 7517.32 9080.57 7519.5 9103.16 7515.95C9147.74 7507.1 9186.01 7465.72 9187.55 7418.26C9186.78 7396.67 9182.33 7375.4 9174.64 7355.41L9080.41 7069.16C9080.11 7067.14 9079.18 7065.21 9078.11 7063.55C9077.03 7061.86 9075.5 7060.46 9073.81 7059.43C9070.27 7058.6 9066.58 7059.27 9063.51 7061.31C9041.22 7072.34 8996.64 7083.97 8983.57 7108.21C8970.66 7132.45 8990.49 7163.8 8981.12 7190.07Z" fill="#FBB3B2"/>
<path d="M8937.16 7175.7C8971.44 7170.05 9001.57 7148.86 9033.69 7134.92C9065.97 7120.98 9106.25 7115.61 9133.3 7138.83C9140.98 7145.51 9148.51 7154.66 9158.66 7154.52C9144.83 7083.54 9124.08 7014.25 9096.72 6947.81C9095.79 6944.63 9093.95 6941.84 9091.33 6939.83C9087.64 6938.22 9083.34 6938.22 9079.65 6939.83L8986.66 6965.37C8952.22 6974.81 8948.23 6971.91 8950.84 7007.46C8951.61 7023.29 8959.3 7175.7 8937.16 7175.7Z" fill="#323444"/>
<path d="M8926.87 5108.68C8913.03 5131.02 8913.03 5158.9 8913.03 5185.17C8913.03 5313.63 8914.26 5442.82 8932.4 5569.98C8936.71 5600.47 8942.09 5630.95 8944.85 5661.72C8947.93 5704.56 8948.54 5747.55 8946.7 5790.47L8933.02 6349.33C8931.33 6417.7 8927.94 6491.15 8887.82 6544.85C8875.68 6562.86 8869.84 6584.82 8871.69 6606.84C8882.14 6747.06 8904.27 6886.13 8926.25 7024.75C8961.61 7007.98 9000.19 7000.26 9038.93 7002.21C9077.66 7004.15 9115.47 7015.7 9149.14 7035.93C9218.77 6805.64 9257.35 6566.21 9263.5 6324.65C9266.73 6205.77 9261.96 6086.17 9279.33 5968.73C9308.38 5771.03 9296.55 5568.24 9275.18 5369.38C9268.42 5306.37 9253.97 5241.49 9215.7 5192.72C9179.27 5150.04 9130.85 5120.74 9077.51 5109.11C9026.47 5095.03 8980.67 5109.54 8926.87 5108.68Z" fill="#5B5583"/>
<path opacity="0.1" d="M8926.87 5108.68C8913.03 5131.02 8913.03 5158.9 8913.03 5185.17C8913.03 5313.63 8914.26 5442.82 8932.4 5569.98C8936.71 5600.47 8942.09 5630.95 8944.85 5661.72C8947.93 5704.56 8948.54 5747.55 8946.7 5790.47L8933.02 6349.33C8931.33 6417.7 8927.94 6491.15 8887.82 6544.85C8875.68 6562.86 8869.84 6584.82 8871.69 6606.84C8882.14 6747.06 8904.27 6886.13 8926.25 7024.75C8961.61 7007.98 9000.19 7000.26 9038.93 7002.21C9077.66 7004.15 9115.47 7015.7 9149.14 7035.93C9218.77 6805.64 9257.35 6566.21 9263.5 6324.65C9266.73 6205.77 9261.96 6086.17 9279.33 5968.73C9308.38 5771.03 9296.55 5568.24 9275.18 5369.38C9268.42 5306.37 9253.97 5241.49 9215.7 5192.72C9179.27 5150.04 9130.85 5120.74 9077.51 5109.11C9026.47 5095.03 8980.67 5109.54 8926.87 5108.68Z" fill="black"/>
<path d="M9095.64 6729.36C9002.95 7228.25 9053.52 7744.82 9240.89 8213.44C9257.03 8248.13 9268.41 8285.1 9274.56 8323.18C9282.24 8394.31 9251.04 8462.67 9233.21 8531.49C9191.71 8687.96 9215.69 8854.61 9242.12 9014.71C9253.19 9081.48 9264.57 9148.21 9276.25 9214.89C9287.78 9279.92 9298.69 9350.6 9270.1 9409.55C9294.69 9517.82 9309.45 9625.09 9334.04 9733.38C9336.66 9741.95 9337.58 9751.02 9336.5 9759.96C9331.43 9774.13 9322.67 9786.47 9311.14 9795.51C9292.69 9815.16 9279.48 9839.49 9272.71 9866.14C9265.95 9892.78 9265.95 9920.83 9272.71 9947.49C9335.73 9899.88 9423.66 9916.57 9495.75 9947.49C9567.84 9978.42 9638.86 10020.1 9716.79 10020.1C9705.41 9923.98 9694.5 9823.09 9728.16 9732.94C9747.84 9680.7 9782.42 9631.34 9781.35 9575.45C9780.42 9525.37 9751.22 9480.67 9744.3 9431.17C9741.69 9400.37 9742.77 9369.35 9747.53 9338.85C9766.13 9161.17 9745.07 8981.76 9724.01 8804.38C9721.71 8769.4 9713.87 8735.07 9700.96 8702.77C9691.12 8681.87 9676.52 8661.83 9676.67 8638.46C9676.67 8611.32 9697.57 8589.26 9705.26 8563.42C9719.09 8515.81 9693.73 8451.06 9732.01 8421.6C9832.84 8343.79 9794.11 8158 9791.95 8026.63C9790.11 7913.3 9785.5 7800.08 9778.12 7686.95C9841.6 7874.55 9867.43 8073.91 9854.36 8272.52C9849.9 8337.55 9841.76 8405.92 9865.89 8466.02C9884.33 8512.17 9921.07 8550.21 9931.06 8599.13C9937.36 8629.31 9932.91 8660.53 9934.29 8691.3C9935.68 8722.07 9945.51 8755.61 9970.88 8771.14C9972.72 8911.08 9984.71 9060.73 9986.71 9200.66C9985.32 9272.19 9991.01 9343.68 10003.3 9414.04C10009.5 9436.42 10013 9459.54 10013.5 9482.85C10010.4 9512.07 10003 9540.6 9991.78 9567.48C9967.65 9642.38 9961.34 9722.34 9973.33 9800.38C9985.48 9878.43 10015.5 9952.2 10060.8 10015.3C10093.4 9954.46 10161.3 9922.24 10227.6 9917.15C10293.8 9912.07 10359.3 9929.64 10423.6 9947.35C10413.7 9862.53 10429.7 9776.63 10469.4 9702.03C10480 9685.21 10488.1 9666.81 10493.5 9647.45C10501 9610.58 10483.7 9573.85 10474.1 9537.42C10458.9 9479.37 10464.3 9416.8 10467.8 9356.13C10480 9152.91 10471.4 8948.92 10442.3 8747.62C10437.9 8707.98 10428.9 8669 10415.9 8631.49C10411 8618.14 10405 8605.37 10400.8 8591.86C10394.2 8567.65 10390.5 8542.7 10389.7 8517.55L10373.8 8285.3C10362.7 8122.57 10413.4 7961.88 10448.9 7803.09C10464.8 7731.95 10482.1 7660.97 10492.7 7588.69C10507.2 7490.27 10509.5 7389.67 10530.8 7292.57C10549.9 7205.47 10584.3 7120.55 10591.4 7031.29C10602.5 6892.94 10547.8 6759.25 10494.7 6632.39C10472.7 6580.14 10389.1 6585.36 10335.5 6576.06C9954.43 6510.32 9553.08 6509.88 9193.86 6658.08C9156.66 6674.26 9123.15 6698.55 9095.64 6729.36Z" fill="#3C354C"/>
<path d="M9370.32 4152.96L9412.59 4325.7C9423.96 4365.31 9430.42 4406.37 9431.5 4447.78C9431.96 4462.88 9428.73 4477.84 9422.27 4491.32C9415.2 4502.38 9406.29 4511.94 9395.99 4519.48C9367.09 4542.56 9347.11 4596.42 9314.06 4612.38C9331.12 4643.44 9354.49 4623.27 9385.23 4638.8C9439.18 4666.38 9488.68 4706.01 9547.24 4719.66C9602.42 4732.43 9660.37 4720.38 9715.25 4705.14C9793.03 4682.93 9870.34 4652.29 9932.91 4598.74C9995.47 4545.18 10031.1 4497.86 10030.8 4413.23C9961.8 4421.78 9900.32 4348.48 9869.73 4282.58C9859.12 4257.53 9851.44 4231.28 9846.52 4204.34L9809.63 4033.2C9769.2 4042.49 9736.31 4072.83 9697.88 4088.66C9659.3 4104.48 9613.8 4105.92 9570.91 4107.96C9494.98 4111.59 9419.35 4121.89 9344.96 4138.73C9334.81 4140.91 9321.9 4147.73 9324.51 4158.18" fill="#FBB3B2"/>
<path opacity="0.1" d="M9370.32 4152.96L9412.59 4325.7C9423.96 4365.31 9430.42 4406.37 9431.5 4447.78C9431.96 4462.88 9428.73 4477.84 9422.27 4491.32C9415.2 4502.38 9406.29 4511.94 9395.99 4519.48C9367.09 4542.56 9347.11 4596.42 9314.06 4612.38C9331.12 4643.44 9354.49 4623.27 9385.23 4638.8C9439.18 4666.38 9488.68 4706.01 9547.24 4719.66C9602.42 4732.43 9660.37 4720.38 9715.25 4705.14C9793.03 4682.93 9870.34 4652.29 9932.91 4598.74C9995.47 4545.18 10031.1 4497.86 10030.8 4413.23C9961.8 4421.78 9900.32 4348.48 9869.73 4282.58C9859.12 4257.53 9851.44 4231.28 9846.52 4204.34L9809.63 4033.2C9769.2 4042.49 9736.31 4072.83 9697.88 4088.66C9659.3 4104.48 9613.8 4105.92 9570.91 4107.96C9494.98 4111.59 9419.35 4121.89 9344.96 4138.73C9334.81 4140.91 9321.9 4147.73 9324.51 4158.18" fill="black"/>
<path d="M9551.7 4248.17C9753.68 4248.17 9917.38 4076.07 9917.38 3863.79C9917.38 3651.51 9753.68 3479.41 9551.7 3479.41C9349.72 3479.41 9186.01 3651.51 9186.01 3863.79C9186.01 4076.07 9349.72 4248.17 9551.7 4248.17Z" fill="#FBB3B2"/>
<path d="M9652.39 4497.41C9671.91 4453.01 9700.19 4413.44 9735.24 4381.28C9786.73 4333.81 9857.29 4295.35 9869.43 4224.51L9980.87 4361.1C9987.02 4367.44 9991.79 4375.06 9994.71 4383.46C9996.09 4391.34 9995.94 4399.43 9994.1 4407.22C9992.4 4415 9989.02 4422.3 9984.26 4428.6C9956.59 4474.91 9913.09 4508 9872.05 4541.53C9777.67 4620.07 9687.44 4703.79 9601.51 4792.37C9597.67 4796.99 9592.59 4800.23 9586.91 4801.66C9581.68 4801.81 9576.3 4800.24 9571.84 4797.16C9497.75 4756.25 9432.27 4700.18 9378.93 4632.26C9374.94 4627.18 9370.02 4621.37 9363.56 4621.81C9359.57 4622.56 9356.03 4624.54 9353.11 4627.46C9316.06 4659.4 9275.48 4697.58 9227.83 4692.65C9289.47 4646.05 9324.52 4568.25 9337.43 4489.42C9340.04 4462.45 9345.27 4435.83 9353.11 4410.02C9357.26 4397.11 9364.33 4385.46 9373.71 4376.09C9383.08 4366.72 9394.61 4359.93 9407.06 4356.31C9376.94 4404.65 9397.53 4473.17 9437.96 4512.22C9477.31 4547.29 9524.35 4571.3 9574.92 4582.04C9621.96 4591.32 9635.79 4535.44 9652.39 4497.41Z" fill="#323444"/>
<path d="M9176.66 6768.85C9228.77 6782.34 9278.11 6805.28 9328.53 6822.27C9420.76 6852.59 9517.59 6863.29 9613.82 6853.76C9643.33 6853.08 9672.08 6843.45 9696.67 6826.04C9703.13 6820.53 9709.12 6813.99 9715.88 6808.92C9727.57 6801.62 9740.02 6796.19 9753.08 6792.79C9879.74 6751.14 9985.8 6661.28 10088.6 6573.32C10092 6570.42 10095.7 6566.78 10095.4 6562.14C10094.9 6558.97 10093.6 6556.08 10091.3 6553.87L10037.1 6488.54C9895.27 6513.94 9749.86 6504.37 9605.83 6500.59C9576.16 6499.22 9546.49 6500.04 9517.13 6503.07C9488.7 6506.55 9460.57 6514.1 9432.59 6520.48C9326.07 6544.87 9217.24 6554.15 9109.49 6570.12C9101.96 6570.71 9094.58 6573.09 9088.12 6577.09C9083.51 6580.8 9079.67 6585.31 9076.59 6590.44L9038.78 6646.33C9024.02 6665.13 9013.26 6686.94 9006.96 6710.34C8998.2 6753.9 9016.65 6768.41 9051.85 6762.76C9093.5 6756.35 9135.77 6758.41 9176.66 6768.85Z" fill="#323444"/>
<path d="M9599.99 4725.9C9557.71 4680.4 9509.76 4641.1 9457.65 4609.05C9436.44 4594.95 9413.07 4585.11 9388.48 4580.02C9376.18 4577.46 9363.42 4577.77 9351.28 4580.92C9338.98 4584.09 9327.61 4590.01 9317.77 4598.3C9305.47 4609.77 9297.79 4625.74 9285.95 4637.79C9271.04 4650.98 9253.82 4661.18 9235.38 4667.84C9172.51 4696.07 9113.02 4731.77 9057.84 4774.24C9027.71 4796.34 9000.66 4822.6 8977.3 4852.33C8914.73 4936.52 8905.36 5051.05 8907.05 5157.88C8908.28 5232.2 8976.06 5287.37 9022.79 5342.97C9066.45 5397.67 9106.11 5455.91 9141.15 5517.15C9166.36 5558.95 9192.65 5604.25 9189.42 5654.03C9186.8 5694.82 9164.21 5733.15 9167.75 5773.79C9168.98 5788.3 9173.43 5801.67 9174.66 5815.74C9177.12 5844.77 9166.21 5873.81 9163.44 5902.83C9159.75 5943.91 9172.36 5984.7 9173.13 6026.07C9172.66 6054.39 9169.13 6082.58 9162.83 6110.12C9136.39 6242.79 9103.03 6376.19 9109.8 6511.62L9033.4 6526.13C9040.63 6533.6 9046.16 6542.77 9049.39 6552.86C9052.61 6562.96 9053.54 6573.74 9052.15 6584.29C9050.62 6594.85 9046.93 6604.91 9041.09 6613.63C9035.25 6622.37 9027.56 6629.54 9018.64 6634.58C9138.08 6676.53 9267.2 6655.33 9393.86 6655.19C9498.53 6655.19 9603.06 6669.7 9707.74 6667.67C9812.42 6665.64 9920.32 6645.75 10006.7 6583.48C10030.1 6566.64 10051.6 6546.9 10076.3 6532.24C10109.5 6514.2 10145.2 6501.95 10182.1 6495.95C10250.3 6482.26 10319.7 6475.74 10389.1 6476.49C10423.1 6476.49 10460.2 6477.95 10487.2 6456.47C10517 6432.65 10524.6 6389.55 10528.6 6350.5C10532.7 6309.27 10535.2 6267.9 10535.8 6226.54C10537 6194.32 10535.3 6162.06 10531 6130.16C10526.9 6106.82 10521.5 6083.75 10514.9 6061.06L10462.8 5868.29C10441.3 5788.74 10471.2 5701.49 10477.5 5619.06C10479.1 5599.6 10479.4 5576.95 10465.1 5564.47C10460 5559.97 10452.9 5556.93 10451.2 5549.96C10450.6 5546.65 10450.5 5543.21 10451.1 5539.87C10451.6 5536.52 10452.8 5533.34 10454.6 5530.51C10482.3 5472.44 10523.6 5421.2 10561.5 5368.8C10625.1 5276.88 10684.1 5181.58 10738.2 5083.28C10721.3 4877.56 10638.9 4683.86 10504.3 4533.42C10476.8 4501.92 10445.1 4471.73 10406.4 4457.5C10381.2 4449.39 10355 4444.94 10328.6 4444.29C10220.2 4436.6 10107.5 4429.78 10013.3 4372.59C10006.6 4367.65 9998.87 4364.24 9990.72 4362.57C9969.97 4360.1 9954.75 4381.74 9941.23 4398.86C9906.33 4442.41 9855.15 4467.37 9810.11 4499.46C9726.18 4559.41 9660.55 4641.85 9599.99 4725.9Z" fill="#323444"/>
<path d="M10747.6 5142.65C10769.1 5214.35 10767.1 5290.99 10774.2 5365.75C10778.3 5410.86 10785.9 5455.57 10796.6 5499.44C10801.5 5523.55 10810.5 5546.59 10822.9 5567.52C10835.4 5586.68 10853.2 5602.21 10861 5623.84C10865.3 5638.49 10867.2 5653.8 10866.7 5669.13L10868.3 5769.29C10871.9 5822.37 10864.3 5875.6 10845.8 5925.19L10786.3 6115.49C10754.2 6218.55 10721.2 6323.2 10663 6412.92C10654.9 6428.1 10642.6 6440.3 10627.7 6447.89C10616 6451.15 10604 6453.09 10591.9 6453.71C10570.8 6457.65 10551.8 6469.19 10537.9 6486.33C10524.1 6503.48 10516.4 6525.14 10516.1 6547.61C10502.3 6526.4 10485 6507.87 10465.1 6492.9L10343.9 6391.28C10302.6 6355.87 10259.4 6319.86 10209.1 6299.4C10276.6 6277.21 10336.7 6234.87 10381.9 6177.5C10426.9 6120.14 10455.4 6050.25 10463.4 5976.28C10463.4 5954.26 10468.1 5932.53 10477.2 5912.7C10487.4 5895.57 10506 5882.5 10507.3 5862.34C10509 5836.94 10481.7 5817.77 10481.7 5792.37C10481.7 5775.53 10493.5 5761.6 10498.7 5745.77C10503.6 5726.21 10503.6 5705.66 10498.7 5686.11L10482.1 5588.56C10481.1 5578.79 10478.3 5569.32 10473.8 5560.69C10467.5 5552.43 10460.6 5544.75 10453.1 5537.76C10424.3 5503.93 10437.1 5450.66 10453.1 5409.01C10489.8 5316.53 10537.3 5229.13 10594.2 5148.74C10614.5 5121.75 10633.2 5093.53 10650.4 5064.26C10665 5037.56 10668.4 5000.53 10683.8 4977.17C10703.8 5032.03 10730.7 5086.18 10747.6 5142.65Z" fill="#393D5E"/>
<path d="M10204.8 6305.34C10198.7 6310.15 10193.3 6316.05 10189 6322.77C10172.7 6344.23 10151 6360.48 10126.4 6369.65C10140.3 6380.1 10152.9 6390.41 10165.8 6401C10261.8 6478.97 10349.8 6567.38 10428.2 6664.75C10436.9 6632.09 10489 6634.41 10501.6 6603.21C10504.7 6594.28 10505.6 6584.73 10504.4 6575.34C10501.8 6526.43 10495.2 6477.87 10484.6 6430.18C10480.4 6405.63 10470.9 6382.39 10456.9 6362.25C10437.5 6337.71 10407.6 6325.96 10378.8 6315.79C10335.3 6299.83 10248.9 6277.33 10204.8 6305.34Z" fill="#323444"/>
<path d="M10032.2 6419.44C9990.72 6451.66 9954.44 6492 9907.87 6514.08C9874.97 6529.75 9837.62 6536.57 9808.88 6559.95C9824.56 6596.09 9865.14 6614.82 9902.8 6613.36C9940.46 6609.47 9976.73 6595.53 10007.9 6572.86C10032.5 6556.89 10061.6 6538.32 10088.5 6549.49C10092.6 6571.56 10074.6 6592.32 10074.6 6614.66C10074.6 6637.02 10092.3 6653.29 10109.8 6665.04C10192.7 6721.21 10299.2 6716.57 10398.1 6710.04C10403.6 6710.25 10409.3 6708.53 10413.9 6705.11C10416 6702.47 10417.6 6699.43 10418.7 6696.14C10419.7 6692.86 10420 6689.39 10419.9 6685.94C10421.1 6663 10421.6 6640.22 10421.7 6617.28C10424.5 6598.8 10422.2 6579.84 10415.1 6562.68C10408 6545.49 10396.5 6530.8 10381.8 6520.32C10328.1 6471.91 10270.3 6428.89 10209.1 6391.85C10148.3 6354.84 10086.8 6376.76 10032.2 6419.44Z" fill="#FBB3B2"/>
<path d="M9680.2 3703.11C9618.87 3710.81 9574.3 3761.18 9580.44 3815.9C9586.75 3870.63 9641.31 3908.36 9702.64 3900.53C9763.98 3892.69 9808.55 3842.46 9802.4 3787.88C9796.1 3733.31 9741.53 3695.42 9680.2 3703.11ZM9700.95 3885.44C9649.15 3891.96 9602.89 3859.88 9597.51 3813.72C9592.13 3767.56 9630.09 3724.89 9681.89 3718.36C9733.54 3711.82 9779.96 3743.9 9785.34 3790.06C9790.72 3836.22 9752.75 3878.9 9700.95 3885.44Z" fill="#3C354C"/>
<path d="M9381.39 3740.85C9320.06 3748.55 9275.48 3798.91 9281.63 3853.49C9287.78 3908.08 9342.5 3945.95 9403.83 3938.26C9465.16 3930.56 9509.74 3880.2 9503.59 3825.47C9497.29 3770.75 9442.72 3733.16 9381.39 3740.85ZM9402.14 3923.02C9350.34 3929.56 9304.07 3897.47 9298.69 3851.46C9293.46 3805.44 9331.28 3762.62 9383.08 3755.94C9435.04 3749.27 9481.3 3781.49 9486.53 3827.65C9491.76 3873.81 9453.94 3916.49 9402.14 3923.02Z" fill="#3C354C"/>
<path d="M9159.43 3768.86L9292.69 3798.77L9279.63 3835.64L9153.89 3796.88L9159.43 3768.86Z" fill="#3C354C"/>
<path d="M9902.18 3675.08L9779.37 3737.35L9800.42 3769.87L9913.86 3700.92L9902.18 3675.08Z" fill="#3C354C"/>
<path d="M9491.31 3789.48L9584.76 3777.72L9580 3802.11L9499.76 3807.76L9491.31 3789.48Z" fill="#3C354C"/>
<path d="M9309.91 3756.51C9318.67 3736.63 9323.43 3715 9323.74 3693.08C9324.05 3679.96 9326.2 3666.95 9330.04 3654.47C9336.96 3638.62 9347.26 3624.73 9360.17 3613.97C9403.36 3575.64 9465 3555.9 9525.87 3553.14C9592.28 3549.93 9658.37 3564.95 9717.55 3596.7C9735.69 3605.61 9751.83 3618.24 9765.21 3633.85C9784.57 3658.67 9788.72 3690.76 9808.24 3715.29C9821.46 3730.18 9838.22 3741.2 9856.66 3747.31C9875.26 3753.42 9894.94 3754.38 9914 3750.13C9920.76 3724.88 9911.85 3698.16 9915.38 3672.32C9920.76 3650.19 9928.14 3628.61 9937.36 3607.87C9958.73 3541.53 9927.53 3464.61 9863.12 3424.98C9840.68 3410.46 9813.93 3401.02 9797.18 3381.42C9780.27 3361.84 9776.27 3341.51 9764.74 3321.91C9733.85 3270.09 9654.22 3245.85 9593.51 3269.8C9574.6 3277.35 9557.69 3288.82 9538.33 3296.95C9502.51 3312.48 9461.62 3315.24 9422.12 3320.47C9383.07 3324.24 9345.11 3334.74 9309.45 3351.53C9275.32 3369.23 9246.73 3397.69 9238.89 3431.66C9235.05 3447.33 9235.97 3463.59 9232.13 3479.12C9213.07 3557.94 9090.1 3596.26 9083.18 3676.68C9080.72 3705.71 9095.79 3733.57 9114.54 3757.23C9127.45 3773.36 9158.65 3816.46 9180.48 3822.7C9202.46 3828.95 9219.22 3807.03 9240.28 3799.48C9273.32 3788.59 9293.31 3786.27 9309.91 3756.51Z" fill="#CBCEDA"/>
<path d="M10867.8 8869.11C10867.8 9598.39 11303.1 10188.6 11840.9 10188.6L10867.8 8869.11Z" fill="#46455B"/>
<path d="M11841 10188.8C11841 9451.2 12326.7 8854.47 12927.1 8854.47L11841 10188.8Z" fill="#036F9D"/>
<path d="M11220.4 8935.32C11220.4 9628.15 11498 10188.7 11841 10188.7L11220.4 8935.32Z" fill="#036F9D"/>
<path d="M11841 10188.7C11841 9246.38 12402.5 8483.72 13096.2 8483.72L11841 10188.7Z" fill="#46455B"/>
<path opacity="0.1" d="M11798.8 10440.7C11932.4 10440.7 12040.8 10421.5 12040.8 10397.8C12040.8 10374 11932.4 10354.8 11798.8 10354.8C11665.2 10354.8 11556.9 10374 11556.9 10397.8C11556.9 10421.5 11665.2 10440.7 11798.8 10440.7Z" fill="#036F9D"/>
<path d="M11636.2 10198C11636.2 10198 11774.4 10193.5 11815.7 10162.5C11857.2 10131.4 12028 10094.1 12038.3 10144C12048.8 10194 12245.5 10392.4 12090 10393.7C11934.3 10395 11727.8 10368.2 11686.5 10341.6C11645 10315 11636.2 10198 11636.2 10198Z" fill="#A8A8A8"/>
<path opacity="0.2" d="M12092.7 10376.3C11937 10377.6 11730.9 10350.7 11689.2 10324.2C11657.7 10304 11645.1 10231.3 11640.8 10197.9H11636.2C11636.2 10197.9 11645 10314.9 11686.5 10341.4C11728.1 10368 11934.3 10394.9 12090 10393.5C12135 10393.5 12150.5 10376.3 12149.8 10351.5C12143.5 10366.5 12127 10376 12092.7 10376.3Z" fill="black"/>
<path d="M310.49 9295.3C310.49 9875.92 656.804 10345.1 1084.74 10345.1L310.49 9295.3Z" fill="#46455B"/>
<path d="M1084.75 10345.1C1084.75 9758.36 1471.34 9283.55 1948.78 9283.55L1084.75 10345.1Z" fill="#036F9D"/>
<path d="M591.014 9348.13C591.014 9899.74 811.898 10345.4 1084.74 10345.4L591.014 9348.13Z" fill="#036F9D"/>
<path d="M1084.75 10345.1C1084.75 9595.32 1531.45 8988.58 2083.43 8988.58L1084.75 10345.1Z" fill="#46455B"/>
<path opacity="0.1" d="M1051.08 10545.7C1157.45 10545.7 1243.68 10530.3 1243.68 10511.4C1243.68 10492.5 1157.45 10477.2 1051.08 10477.2C944.862 10477.2 858.629 10492.5 858.629 10511.4C858.629 10530.3 944.862 10545.7 1051.08 10545.7Z" fill="#036F9D"/>
<path d="M921.977 10352.5C921.977 10352.5 1031.73 10348.9 1064.78 10323.5C1097.67 10298.1 1233.71 10269 1241.85 10308.9C1250 10348.9 1406.94 10506.5 1283.36 10507.5C1159.77 10508.5 995.297 10487.2 962.249 10466.1C929.201 10445.1 921.977 10352.5 921.977 10352.5Z" fill="#A8A8A8"/>
<path opacity="0.2" d="M1285.05 10494.9C1160.85 10495.9 996.988 10474.6 964.094 10453.4C938.885 10437.4 928.893 10379.5 925.512 10352.9H921.977C921.977 10352.9 928.893 10446 961.788 10467.1C994.836 10488.3 1159 10509.5 1282.89 10508.5C1318.71 10508.5 1331.16 10494.9 1330.39 10475C1325.47 10486.6 1311.79 10494 1285.05 10494.9Z" fill="black"/>
</svg>
